<?xml version="1.0" encoding="utf-8"?>
<!-- Generator: Adobe Illustrator 23.0.1, SVG Export Plug-In . SVG Version: 6.00 Build 0)  -->
<svg version="1.1" id="icon" xmlns="http://www.w3.org/2000/svg" xmlns:xlink="http://www.w3.org/1999/xlink" x="0px" y="0px"
	 viewBox="0 0 46.7 45.7" style="enable-background:new 0 0 46.7 45.7;" xml:space="preserve">
<style type="text/css">
	.st0{fill:#878787;}
</style>
<title>setting</title>
<path class="st0" d="M45.4,23.3l-6.6-1.6c-0.1-1.2-0.4-2.4-0.8-3.5l0,0l5.3-4.1c0.7-0.6,0.9-1.6,0.3-2.4l-4.2-5.4
	c-0.6-0.7-1.6-0.9-2.4-0.3c0,0,0,0,0,0l-5.4,4.2c-1-0.7-2.1-1.2-3.3-1.6V1.7c0-0.9-0.8-1.7-1.7-1.7h-6.8c-0.9,0-1.7,0.8-1.7,1.7v6.8
	l0,0c-0.8,0.3-1.6,0.6-2.3,1l0,0l-5-4.5c-0.7-0.6-1.8-0.6-2.4,0.1c0,0,0,0,0,0l-4.6,5.1c-0.6,0.7-0.6,1.8,0.1,2.4l5,4.5
	c-0.5,1.1-0.8,2.3-1,3.5l-6.7,1.2c-0.9,0.2-1.5,1-1.4,2c0,0,0,0,0,0l1.2,6.8c0.2,0.9,1,1.5,2,1.4c0,0,0,0,0,0l6.7-1.2
	c0.6,1.1,1.3,2,2.1,2.9l0,0l-3.2,6c-0.4,0.8-0.1,1.8,0.7,2.3c0,0,0,0,0,0l6,3.2c0.8,0.4,1.8,0.1,2.3-0.7c0,0,0,0,0,0l3.2-6
	c0.8,0.1,1.6,0.2,2.4,0.2c0.4,0,0.9,0,1.3,0l2.8,6.2c0.4,0.9,1.4,1.2,2.2,0.9c0,0,0,0,0,0l6.3-2.8c0.9-0.4,1.2-1.4,0.9-2.2
	c0,0,0,0,0,0L34,34.5c0.9-0.8,1.7-1.8,2.3-2.8l0,0l6.6,1.6c0.9,0.2,1.8-0.4,2-1.2l1.7-6.6C46.8,24.6,46.3,23.6,45.4,23.3
	C45.4,23.3,45.4,23.3,45.4,23.3z M15.9,23.1c0-4.1,3.3-7.4,7.5-7.4s7.4,3.3,7.4,7.5c0,4.1-3.3,7.4-7.4,7.4
	C19.2,30.5,15.9,27.2,15.9,23.1L15.9,23.1z"/>
</svg>
